<svg width="28" height="24" viewBox="0 0 28 24" fill="none" xmlns="http://www.w3.org/2000/svg">
<path d="M10.2537 4.49997C10.2537 3.50641 10.6484 2.55353 11.351 1.85097C12.0536 1.14842 13.0064 0.753723 14 0.753723C14.9936 0.753723 15.9464 1.14842 16.649 1.85097C17.3516 2.55353 17.7463 3.50641 17.7463 4.49997C17.7463 5.49354 17.3516 6.44641 16.649 7.14897C15.9464 7.85153 14.9936 8.24622 14 8.24622C13.0064 8.24622 12.0536 7.85153 11.351 7.14897C10.6484 6.44641 10.2537 5.49354 10.2537 4.49997ZM14 2.62872C13.7543 2.62872 13.5109 2.67712 13.2839 2.77116C13.0569 2.8652 12.8506 3.00304 12.6768 3.1768C12.5031 3.35056 12.3652 3.55685 12.2712 3.78388C12.1772 4.01091 12.1287 4.25424 12.1287 4.49997C12.1287 4.74571 12.1772 4.98904 12.2712 5.21607C12.3652 5.4431 12.5031 5.64939 12.6768 5.82315C12.8506 5.99691 13.0569 6.13474 13.2839 6.22878C13.5109 6.32282 13.7543 6.37122 14 6.37122C14.4963 6.37122 14.9722 6.17407 15.3232 5.82315C15.6741 5.47222 15.8713 4.99626 15.8713 4.49997C15.8713 4.00369 15.6741 3.52773 15.3232 3.1768C14.9722 2.82587 14.4963 2.62872 14 2.62872ZM19.625 5.43747C19.625 5.06813 19.6977 4.7024 19.8391 4.36118C19.9804 4.01995 20.1876 3.7099 20.4488 3.44874C20.7099 3.18757 21.02 2.9804 21.3612 2.83906C21.7024 2.69772 22.0682 2.62497 22.4375 2.62497C22.8068 2.62497 23.1726 2.69772 23.5138 2.83906C23.855 2.9804 24.1651 3.18757 24.4262 3.44874C24.6874 3.7099 24.8946 4.01995 25.0359 4.36118C25.1773 4.7024 25.25 5.06813 25.25 5.43747C25.25 6.18339 24.9537 6.89877 24.4262 7.42621C23.8988 7.95366 23.1834 8.24997 22.4375 8.24997C21.6916 8.24997 20.9762 7.95366 20.4488 7.42621C19.9213 6.89877 19.625 6.18339 19.625 5.43747ZM22.4375 4.49997C22.1889 4.49997 21.9504 4.59875 21.7746 4.77456C21.5988 4.95038 21.5 5.18883 21.5 5.43747C21.5 5.68611 21.5988 5.92457 21.7746 6.10039C21.9504 6.2762 22.1889 6.37497 22.4375 6.37497C22.6861 6.37497 22.9246 6.2762 23.1004 6.10039C23.2762 5.92457 23.375 5.68611 23.375 5.43747C23.375 5.18883 23.2762 4.95038 23.1004 4.77456C22.9246 4.59875 22.6861 4.49997 22.4375 4.49997ZM5.5625 2.62497C4.81658 2.62497 4.10121 2.92129 3.57376 3.44874C3.04632 3.97618 2.75 4.69155 2.75 5.43747C2.75 6.18339 3.04632 6.89877 3.57376 7.42621C4.10121 7.95366 4.81658 8.24997 5.5625 8.24997C6.30842 8.24997 7.02379 7.95366 7.55124 7.42621C8.07868 6.89877 8.375 6.18339 8.375 5.43747C8.375 4.69155 8.07868 3.97618 7.55124 3.44874C7.02379 2.92129 6.30842 2.62497 5.5625 2.62497ZM4.625 5.43747C4.625 5.18883 4.72377 4.95038 4.89959 4.77456C5.0754 4.59875 5.31386 4.49997 5.5625 4.49997C5.81114 4.49997 6.0496 4.59875 6.22541 4.77456C6.40123 4.95038 6.5 5.18883 6.5 5.43747C6.5 5.68611 6.40123 5.92457 6.22541 6.10039C6.0496 6.2762 5.81114 6.37497 5.5625 6.37497C5.31386 6.37497 5.0754 6.2762 4.89959 6.10039C4.72377 5.92457 4.625 5.68611 4.625 5.43747ZM7.0025 10.125C6.67251 10.6947 6.49914 11.3416 6.5 12H2.75V16.6875C2.74985 17.1539 2.86568 17.613 3.08706 18.0234C3.30845 18.4339 3.62844 18.7829 4.01823 19.039C4.40802 19.2951 4.85537 19.4502 5.32002 19.4904C5.78466 19.5306 6.25201 19.4547 6.68 19.2693C6.81875 19.89 7.03625 20.4825 7.3175 21.0356C6.60587 21.3229 5.83458 21.4311 5.07136 21.3507C4.30813 21.2703 3.57633 21.0037 2.9402 20.5744C2.30408 20.1451 1.7831 19.5661 1.42301 18.8884C1.06292 18.2107 0.874745 17.4549 0.875 16.6875V12C0.875 11.5027 1.07254 11.0258 1.42417 10.6741C1.77581 10.3225 2.25272 10.125 2.75 10.125H7.0025ZM20.6825 21.0356C21.3941 21.3229 22.1654 21.4311 22.9286 21.3507C23.6919 21.2703 24.4237 21.0037 25.0598 20.5744C25.6959 20.1451 26.2169 19.5661 26.577 18.8884C26.9371 18.2107 27.1253 17.4549 27.125 16.6875V12C27.125 11.5027 26.9275 11.0258 26.5758 10.6741C26.2242 10.3225 25.7473 10.125 25.25 10.125H20.9975C21.3162 10.6762 21.5 11.3156 21.5 12H25.25V16.6875C25.2502 17.1539 25.1343 17.613 24.9129 18.0234C24.6916 18.4339 24.3716 18.7829 23.9818 19.039C23.592 19.2951 23.1446 19.4502 22.68 19.4904C22.2153 19.5306 21.748 19.4547 21.32 19.2693C21.1794 19.89 20.9638 20.4825 20.6825 21.0356ZM10.25 10.1231C9.75272 10.1231 9.27581 10.3206 8.92418 10.6723C8.57254 11.0239 8.375 11.5008 8.375 11.9981V17.625C8.375 19.1168 8.96763 20.5476 10.0225 21.6024C11.0774 22.6573 12.5082 23.25 14 23.25C15.4918 23.25 16.9226 22.6573 17.9775 21.6024C19.0324 20.5476 19.625 19.1168 19.625 17.625V12C19.625 11.5027 19.4275 11.0258 19.0758 10.6741C18.7242 10.3225 18.2473 10.125 17.75 10.125H10.25V10.1231ZM10.25 11.9981H17.75V17.625C17.75 18.6195 17.3549 19.5734 16.6516 20.2766C15.9484 20.9799 14.9946 21.375 14 21.375C13.0054 21.375 12.0516 20.9799 11.3483 20.2766C10.6451 19.5734 10.25 18.6195 10.25 17.625V12V11.9981Z" fill="#F4B400"/>
</svg>
