<svg width="19" height="22" viewBox="0 0 19 22" fill="none" xmlns="http://www.w3.org/2000/svg">
<path d="M16.7917 15.7084V10.2917C16.2708 10.3959 15.75 10.5 15.2292 10.5H14.7083V16.75H4.29167V9.45837C4.29167 6.54171 6.58333 4.25004 9.5 4.25004C9.60417 2.89587 10.2292 1.75004 11.0625 0.812541C10.75 0.395874 10.125 0.083374 9.5 0.083374C8.35417 0.083374 7.41667 1.02087 7.41667 2.16671V2.47921C4.29167 3.41671 2.20833 6.22921 2.20833 9.45837V15.7084L0.125 17.7917V18.8334H18.875V17.7917L16.7917 15.7084ZM7.41667 19.875C7.41667 21.0209 8.35417 21.9584 9.5 21.9584C10.6458 21.9584 11.5833 21.0209 11.5833 19.875H7.41667ZM18.875 4.77087C18.875 6.75004 17.2083 8.41671 15.2292 8.41671C13.25 8.41671 11.5833 6.75004 11.5833 4.77087C11.5833 2.79171 13.25 1.12504 15.2292 1.12504C17.2083 1.12504 18.875 2.79171 18.875 4.77087Z" fill="white"/>
</svg>
