<svg width="22" height="22" viewBox="0 0 22 22" fill="none" xmlns="http://www.w3.org/2000/svg">
<path d="M11.5001 8.37504C13.5136 8.37504 15.1459 6.74275 15.1459 4.72921C15.1459 2.71567 13.5136 1.08337 11.5001 1.08337C9.48654 1.08337 7.85425 2.71567 7.85425 4.72921C7.85425 6.74275 9.48654 8.37504 11.5001 8.37504Z" stroke="white" stroke-width="2.08333" stroke-linecap="round" stroke-linejoin="round"/>
<path d="M1.08337 20.3542C1.08337 15.7516 5.28077 12.0209 10.4584 12.0209M18.2709 15.1459V13.5834C18.2709 13.169 18.1063 12.7715 17.8132 12.4785C17.5202 12.1855 17.1228 12.0209 16.7084 12.0209C16.294 12.0209 15.8965 12.1855 15.6035 12.4785C15.3105 12.7715 15.1459 13.169 15.1459 13.5834V15.1459M13.0625 15.1459H20.3542V20.3542H13.0625V15.1459Z" stroke="white" stroke-width="2.08333" stroke-linecap="round" stroke-linejoin="round"/>
</svg>
