<svg width="21" height="21" viewBox="0 0 21 21" fill="none" xmlns="http://www.w3.org/2000/svg">
<path d="M10.5 0.083374C8.90218 0.0833037 7.32575 0.450812 5.89268 1.15747C4.45961 1.86412 3.20831 2.89098 2.23558 4.15861C1.26286 5.42623 0.594791 6.90064 0.283057 8.46776C-0.0286778 10.0349 0.0242804 11.6527 0.437834 13.1961C0.851388 14.7395 1.61445 16.167 2.66799 17.3683C3.72153 18.5696 5.03731 19.5125 6.51353 20.1239C7.98975 20.7353 9.58683 20.9989 11.1812 20.8944C12.7756 20.7898 14.3246 20.3199 15.7083 19.5209C15.8328 19.4558 15.9429 19.3661 16.0318 19.2574C16.1207 19.1486 16.1868 19.023 16.2259 18.8881C16.2651 18.7532 16.2765 18.6117 16.2596 18.4723C16.2426 18.3328 16.1977 18.1982 16.1273 18.0766C16.057 17.9549 15.9629 17.8488 15.8505 17.7645C15.7381 17.6802 15.6098 17.6195 15.4733 17.5861C15.3369 17.5527 15.1951 17.5472 15.0564 17.57C14.9178 17.5928 14.7852 17.6434 14.6667 17.7188C13.0781 18.636 11.2312 19.0034 9.41252 18.764C7.59384 18.5246 5.90495 17.6918 4.60779 16.3948C3.31062 15.0978 2.47765 13.409 2.23806 11.5903C1.99848 9.77167 2.36566 7.92477 3.28266 6.33606C4.19967 4.74734 5.61526 3.50559 7.3099 2.80336C9.00454 2.10114 10.8835 1.97769 12.6555 2.45217C14.4274 2.92664 15.9933 3.97252 17.1103 5.4276C18.2273 6.88269 18.8329 8.66567 18.8333 10.5V11.2813C18.8333 11.7648 18.6413 12.2284 18.2994 12.5703C17.9576 12.9122 17.4939 13.1042 17.0104 13.1042C16.527 13.1042 16.0633 12.9122 15.7214 12.5703C15.3796 12.2284 15.1875 11.7648 15.1875 11.2813V6.85421C15.1875 6.57794 15.0778 6.31299 14.8824 6.11764C14.6871 5.92229 14.4221 5.81254 14.1458 5.81254C13.9036 5.80715 13.6671 5.88637 13.4769 6.03657C13.2868 6.18677 13.155 6.39855 13.1042 6.63546C12.3385 6.10585 11.431 5.8191 10.5 5.81254C9.71581 5.80316 8.94179 5.99069 8.24884 6.35795C7.55589 6.72521 6.96616 7.26047 6.53366 7.91469C6.10117 8.56892 5.83973 9.3212 5.7733 10.1026C5.70687 10.8841 5.83756 11.6697 6.15341 12.3875C6.46927 13.1054 6.96018 13.7325 7.58119 14.2115C8.2022 14.6904 8.93346 15.0059 9.70799 15.1291C10.4825 15.2522 11.2756 15.179 12.0145 14.9163C12.7534 14.6535 13.4146 14.2095 13.9375 13.625C14.4325 14.266 15.1148 14.7368 15.8897 14.9719C16.6646 15.2071 17.4936 15.1949 18.2613 14.9371C19.0289 14.6793 19.6972 14.1887 20.1731 13.5335C20.649 12.8783 20.9089 12.0911 20.9167 11.2813V10.5C20.9167 9.1321 20.6472 7.77756 20.1238 6.51375C19.6003 5.24995 18.833 4.10162 17.8657 3.13435C16.8984 2.16707 15.7501 1.39978 14.4863 0.876296C13.2225 0.352809 11.8679 0.083374 10.5 0.083374ZM10.5 13.1042C9.98495 13.1042 9.48147 12.9515 9.05321 12.6653C8.62496 12.3792 8.29118 11.9725 8.09407 11.4966C7.89697 11.0208 7.8454 10.4972 7.94588 9.99199C8.04636 9.48683 8.29439 9.02282 8.65859 8.65862C9.02279 8.29442 9.4868 8.04639 9.99196 7.94591C10.4971 7.84543 11.0207 7.897 11.4966 8.0941C11.9724 8.29121 12.3791 8.62499 12.6653 9.05324C12.9514 9.4815 13.1042 9.98498 13.1042 10.5C13.1042 11.1907 12.8298 11.8531 12.3414 12.3415C11.8531 12.8298 11.1907 13.1042 10.5 13.1042Z" fill="white"/>
</svg>
