<svg width="18" height="18" viewBox="0 0 18 18" fill="none" xmlns="http://www.w3.org/2000/svg">
<path d="M8.99996 17.3333C4.39746 17.3333 0.666626 13.6025 0.666626 8.99999C0.666626 4.39749 4.39746 0.666656 8.99996 0.666656C13.6025 0.666656 17.3333 4.39749 17.3333 8.99999C17.3333 13.6025 13.6025 17.3333 8.99996 17.3333ZM8.99996 15.6667C10.7681 15.6667 12.4638 14.9643 13.714 13.714C14.9642 12.4638 15.6666 10.7681 15.6666 8.99999C15.6666 7.23188 14.9642 5.53619 13.714 4.28594C12.4638 3.0357 10.7681 2.33332 8.99996 2.33332C7.23185 2.33332 5.53616 3.0357 4.28591 4.28594C3.03567 5.53619 2.33329 7.23188 2.33329 8.99999C2.33329 10.7681 3.03567 12.4638 4.28591 13.714C5.53616 14.9643 7.23185 15.6667 8.99996 15.6667ZM4.83329 9.83332H6.49996C6.49996 10.4964 6.76335 11.1322 7.23219 11.6011C7.70103 12.0699 8.33692 12.3333 8.99996 12.3333C9.663 12.3333 10.2989 12.0699 10.7677 11.6011C11.2366 11.1322 11.5 10.4964 11.5 9.83332H13.1666C13.1666 10.9384 12.7276 11.9982 11.9462 12.7796C11.1648 13.561 10.105 14 8.99996 14C7.89489 14 6.83508 13.561 6.05368 12.7796C5.27228 11.9982 4.83329 10.9384 4.83329 9.83332ZM5.66663 8.16666C5.33511 8.16666 5.01716 8.03496 4.78274 7.80054C4.54832 7.56612 4.41663 7.24818 4.41663 6.91666C4.41663 6.58514 4.54832 6.26719 4.78274 6.03277C5.01716 5.79835 5.33511 5.66666 5.66663 5.66666C5.99815 5.66666 6.31609 5.79835 6.55051 6.03277C6.78493 6.26719 6.91663 6.58514 6.91663 6.91666C6.91663 7.24818 6.78493 7.56612 6.55051 7.80054C6.31609 8.03496 5.99815 8.16666 5.66663 8.16666ZM12.3333 8.16666C12.0018 8.16666 11.6838 8.03496 11.4494 7.80054C11.215 7.56612 11.0833 7.24818 11.0833 6.91666C11.0833 6.58514 11.215 6.26719 11.4494 6.03277C11.6838 5.79835 12.0018 5.66666 12.3333 5.66666C12.6648 5.66666 12.9828 5.79835 13.2172 6.03277C13.4516 6.26719 13.5833 6.58514 13.5833 6.91666C13.5833 7.24818 13.4516 7.56612 13.2172 7.80054C12.9828 8.03496 12.6648 8.16666 12.3333 8.16666Z" fill="#F4B400"/>
</svg>
