<svg width="18" height="18" viewBox="0 0 18 18" fill="none" xmlns="http://www.w3.org/2000/svg">
<path d="M16.95 18C17.1167 18 17.2917 17.9957 17.475 17.987C17.6583 17.9783 17.8333 17.966 18 17.95V12.1L13 11.1L10.1 14C8.83333 13.2333 7.67067 12.325 6.612 11.275C5.55333 10.225 4.67433 9.1 3.975 7.9L6.825 5.025L5.9 0H0.0499992C0.0166664 0.166667 0 0.341667 0 0.525V1.05C0 3.2 0.479 5.296 1.437 7.338C2.395 9.38 3.66167 11.1923 5.237 12.775C6.81233 14.3583 8.62067 15.625 10.662 16.575C12.7033 17.525 14.7993 18 16.95 18Z" fill="#F4B400"/>
</svg>
